<svg xmlns="http://www.w3.org/2000/svg" viewBox="0.6 8.5 144.4 162.7">
<!-- SVG created with Arrow, by QuiverAI (https://quiver.ai) -->
  <style type="text/css">.cls-0 {fill:#AADCBD;}
.cls-1 {fill:#044F4B;}
.cls-2 {fill:#FFFFFF;}
.cls-3 {fill:#17AC9E;}
.cls-4 {fill:#1AAB9D;}</style>
  <polygon class="cls-1" points="119.3 55.6 105.8 55.6 99.1 57.5 119.2 60.4 119.2 118.1 28.3 118.1 28.3 60.5 54.2 60.5 57.4 55.7 22.8 55.7 22.8 161.8 73.3 171.2 122.6 161.8 122.6 55.6"/>
  <path class="cls-2" d="m26.1 57.9v100.4l47.4 9 46.7-9v-100.4h-3.2l-1.1 1.7 1.9 0.8v57.7h-89.5v-38.5l-2.2-1.6z"/>
  <path class="cls-1" d="m28.3 131.7v24.7l45.1 8.5 44.3-8.5 0.1-0.1v-24.7h-20.4c-0.4 0-0.3-1.2 0-1.2h20.3v-10.5h-89.3v10.5h20.2c0.2 0.1 0.2 1.2 0 1.2h-20.3z"/>
  <path class="cls-2" d="m59.1 134.2c-2 0-3.6-1-3.6-3.3 0-1.6 1.3-3.2 3.5-3.2 0.7 0 1.4 0.1 1.8 0.4l-0.5 1.7c-0.3-0.2-0.7-0.4-1.2-0.4-1 0-1.6 0.6-1.6 1.6s0.7 1.7 1.6 1.7c0.5 0 1.1-0.2 1.3-0.4l0.4 1.6c-0.4 0.2-1 0.4-1.7 0.4"/>
  <path class="cls-2" d="m62.2 127.8h1.8v6.2h-1.8z"/>
  <path class="cls-2" d="m68.4 129.3v4.8h-1.8v-4.8h-1.5v-1.6h5.1v1.6z"/>
  <path class="cls-2" d="m74.4 131.7v2.4h-1.7v-2.4l-2-4h2l0.9 1.9 1-1.9h1.8z"/>
  <path class="cls-2" d="m81.9 129.4c-0.6 0.2-1 0.7-1 1.6 0 0.8 0.5 1.7 1.4 1.7h0.5c0.6-0.2 0.9-1 0.9-1.6 0.1-0.8-0.5-1.7-1.4-1.7h-0.4m-0.3 4.8c-1.4-0.3-2.7-1.3-2.7-3.3 0-1.7 1.3-3.3 3.3-3.2 2.2 0 3 1.4 3.1 3 0.1 1.8-0.9 3.6-3.7 3.5"/>
  <path class="cls-2" d="m88.6 129.3v1.1h1.8v1.3h-1.8v2.4h-1.8v-6.4h3.8v1.6z"/>
  <path class="cls-2" d="m39.6 140.5h-0.9v6.2h0.9c1.5 0 2.9-0.6 2.9-3 0.1-1.9-0.9-3.2-2.9-3.2m-0.3 9.2h-4.4v-11.9h4.6c3.5 0 7 1.5 7 5.7 0.1 4.4-2.8 6.2-7.2 6.2"/>
  <path class="cls-2" d="m48 137.8h8.2v2.8h-4.4v1.7h4v2.6h-4v1.8h4.6v3h-8.4z"/>
  <path class="cls-2" d="m65.1 140.6v9h-3.6v-9h-3.4v-2.9h10.4v2.9z"/>
  <path class="cls-2" d="m74.3 140.5h-0.8v2.3h1.3c0.7-0.1 1.2-0.4 1.2-1.2 0-0.7-0.5-1.1-1.7-1.1zm2.5 9.2-2.7-4.3h-0.5v4.3h-3.4v-11.9h4.8c2.5 0 4.5 1.2 4.6 3.6 0 2-1.1 2.9-2.1 3.3l3.1 4.9h-3.8z"/>
  <path class="cls-2" d="m86.6 140.5c-1.2 0.4-2 1.4-2 3s1 3.2 2.7 3.3c0.3 0.1 0.6 0 0.9 0 1.3-0.3 2.2-1.6 2.2-3 0-1.8-0.9-3.4-2.7-3.4-0.4 0-0.7 0-1.1 0.1m-0.6 9.2c-2.8-0.5-5.3-2.5-5.4-6.2 0-3.3 2.4-6.1 6.6-6 4.5 0 7 3 7.1 6.2 0 3.2-1.9 6.4-7 6.3-0.5 0-0.9-0.2-1.3-0.3"/>
  <path class="cls-2" d="m96 137.7h3.4v11.9h-3.4z"/>
  <path class="cls-2" d="m107.9 140.6v9h-3.5v-9h-3.4v-2.9h10.3v2.9z"/>
  <path class="cls-1" d="m132.5 33.9s-9.6 4.9-10.3 5.5c-0.6 0.7-9.5 15.6-12.6 19.6l-1.9-1.1-18.9-12.8-11.7 1.9-0.3-11.3s-10.9-4.4-11.8-4.6l-10.1 5.3-1.9 5.8 4.5 5.1-0.5 4.9h2.6l1.8 1.3-4.3 2.2-5.7 3.7-14 17-16.6-5-0.1-10-3.4-0.2-0.1-4.2-3.6 0.1v8.2l-1.4-1.4-4.5 0.1 5 9.6 13 5 15.3 6.7 17.2-17.4 8 8.9-1.4 9.7s-29.2 17-30.2 19c-1.2 1.7-2.5 4.3-2.5 4.3l5.3 8.4h71.6l4.9-8.1-1.1-3.3s-1.9-2.3-3.6-3.6c-1.7-1.2-16.6-10.4-25-14.9l7.6-26.1 20.8 7.2 13.1-25.9 8.6-5.3 3.3-3.4-5.1-0.9z"/>
  <path class="cls-3" d="m75.7 52.8 14.9-3.4 17.2 11.7-1.8 2.7-14.3-7.7-6.1 14.5-11.8-1.9-5.9 2.4-8.3-6.5 14.8-7.8 1.3-4z"/>
  <path class="cls-4" d="m66.8 45.4-2.8-2.1-5.1 0.7-2.2-2 2.8 0.9 5.5-0.9 4.7 2.5-2.4 1z"/>
  <path class="cls-4" d="m69.8 46.6 1.9-0.6 1.3 1.3-1.8 3.7 0.4-3.4-1.8-1z"/>
  <path class="cls-3" d="m85.1 84.2-14.6 4.7-5.8-2.7-0.5 0.6 4.4 3.4v2.2l10.7-3.1-14.5 6.3v3.8l12.2-4.8s-7.8 4.6-9.5 6.6v6.5l9.5-3.8-5.7 5.7 14.3-4.3 6.1-13.1-7.5-3.9 0.9-4.1z"/>
  <path class="cls-3" d="m95 100.6-4 3.4 5.8 0.8 6 6-4.1-7.5z"/>
  <path class="cls-3" d="m39.2 112 22.9-10.8-0.1 5.2-11.4 4.9-11.4 0.7z"/>
  <path class="cls-3" d="m53.2 116.5 3.3-4.3 5.9-2.6-4.5 5.8z"/>
  <path class="cls-3" d="m74.2 78.2 1.4 2.2 6.5-0.6-6.4 1.9-1.9 4.9-1.2 0.2 1.6-8.6z"/>
  <path class="cls-1" d="m15.5 54.9h3.3l1.2 1.9 0.8-0.9 1.4 3.5h-3l-1.3-2.8-0.5 0.4-1.9-2.1z"/>
  <path class="cls-4" d="m100.2 22.9c1.8 0.4 19.4 7.5 19.4 7.5v1.6l-19.5-8.7 0.1-0.4zm-0.4 20.4 19.2-7.6 0.5 1.2-19.7 6.6zm15.7-34.4h0.1v-0.4l0.2 0.1 8 19.2-0.1 0.5h-1zm21.6 0c-0.7 2.9-8.2 19.5-8.2 19.5l-1.4-0.3 9.5-19.1c0-0.1 0.1-0.1 0.1-0.1zm15 15.3-20.2 8.2-0.4-1.4 11.5-3.8 8.5-3z"/>
</svg>