<svg xmlns="http://www.w3.org/2000/svg" viewBox="0 0 256 256" fill="none">
  <path d="M 248.78,230.78 L 155.91,21.8 C 152.92,15.44 149.92,13.38 145.91,13.38 C 137.69,13.38 132.79,22.93 128.77,31.09 L 86.82,123.23 C 85.91,125.31 85.07,125.73 82.98,125.08
C 73.84,122.06 70.14,122.98 64.61,131.84 L 7.14,234.69 C 4.44,239.69 5.31,241.86 10.74,241.86 H 198.63 C 208.66,241.86 227.77,241.41 244.46,241.67 C 250.87,241.77 251.42,240.08
248.78,230.78 Z M 18.58,229.36 C 20.87,221.12 51.72,169.19 69.86,135.93 C 72.78,130.53 74.81,130.31 78.71,132.84 C 85.81,137.27 85.81,146.71 83.71,152.14 C 72.15,182.99
60.81,203.76 35.48,222.72 C 28.96,227.51 23.11,229.79 18.58,229.36 Z M 42.82,227.61 C 64.82,207.81 75.91,193.15 89.11,158.32 C 90.23,155.19 91.18,153.93 94.2,155.91 C
98.42,158.63 99.88,161.12 98.01,168.08 C 90.33,195.31 68.89,221.76 42.82,227.61 Z M 65.36,226.36 C 83.09,210.71 96.18,194.95 105.62,170.1 C 107.39,165.46 109.16,165.14
112.18,165.67 C 113.64,165.94 114.48,166.26 113.95,172.11 C 112.18,189.73 94.1,214.69 72.46,224.77 C 69.86,225.92 67.28,226.67 65.36,226.36 Z M 78.82,234.75 C 108.92,225.92
137.52,204.72 154.11,162.23 C 160.98,142.01 168.28,119.41 175.26,118.67 C 179.28,118.25 187.01,130.85 190.14,136.1 C 204.23,158.63 228.91,203.44 238.46,224.21 C 240.95,229.64
242.21,234.43 242.21,234.43 C 242.21,234.43 236.01,234.64 231.31,234.54 C 224.65,234.32 221.21,234.54 215.01,234.43 L 78.82,234.75 Z M 180.16,112.11 C 177.25,110.13 176.1,107.84
174.22,104.28 L 162.34,80.51 C 159.21,74.88 156.4,72.79 151.97,72.9 C 142.42,73.43 136.46,83.19 132.03,100.81 L 119.72,151.09 C 118.36,156.22 117.94,157.89 113.21,157.78 C
104.17,157.46 92.29,144.98 91.65,134.79 C 91.55,132.06 92.18,129.24 93.75,126.11 L 136.12,31.19 C 139.78,23.76 143.11,20.09 145.81,20.09 C 147.9,20.09 149.15,22.71 150.92,26.59 L
195.72,131.84 L 195.29,132.16 C 189.87,122.18 185.96,115.52 180.16,112.11 Z" fill="url(#glenbrook-logo-gradient)"/>
  <defs>
    <linearGradient id="glenbrook-logo-gradient" x1="244.868" y1="20.2081" x2="15.1133" y2="237.732" gradientUnits="userSpaceOnUse">
      <stop stop-color="#3E73B2"/>
      <stop offset="1" stop-color="#5724C5"/>
    </linearGradient>
  </defs>
</svg>
