<svg xmlns="http://www.w3.org/2000/svg" viewBox="0 0 150 150">
  <style type="text/css">.m {fill:#FCD01E;}</style>
  <rect width="150" height="150" fill="#042957"/>
  <path class="m" d="m75.6 93.2-13.8-19.3v12.1h5.6v15.6h-28.3v-15.5h5.5v-22h-5.5v-16.6h22.3l14.2 21.7 14.7-21.7h22v16.5l-5.3 0.1v22h5.2v15.6l-28.6-0.1v-15.6h6v-12.4l-14 19.6z"/>
  <path class="m" d="m114.7 99c-0.4 0.2-0.7 0.6-0.7 1 0 0.5 0.2 1 0.7 1.2 0.4 0.2 1 0.2 1.3-0.1 0.6-0.6 0.4-2.4-1.3-2.1zm1.3 2c-1.4 1.1-3.1-0.6-2.3-2.1 1.2-1.5 3.5 0.3 2.3 2.1z"/>
  <path class="m" d="m115.2 100c0.6-0.1 0.6-1-0.8-1.1v1.7h0.3v-0.6l0.6 0.6 0.4 0.1-0.5-0.7zm-0.6-0.2v-0.6c0.8-0.1 0.8 0.6 0 0.6z"/>
</svg>
