<svg xmlns="http://www.w3.org/2000/svg" viewBox="40 53 83 26"><style type="text/css">.cls-4{fill:#3F72EC;}.cls-5{fill:#0E151D;}</style>  <path class="cls-4" d="m56.7 53.9c-5.9-0.1-12.3 3.7-14.7 10-0.2 1.4 1.5 1.8 1.8 0.7 2-4.7 6.4-8.6 12.4-8.7 7.1-0.2 13.2 5.2 13.2 12.8-0.2 4.8-3.3 10-8.8 11.9-1.3 0.2-1.2 2.3 0.6 1.9 5.6-1.7 10.1-6.5 10.2-13.6 0.1-8-6.7-15.1-14.7-15z"/>
  <path class="cls-4" d="m56.5 58.3c-5.5 0-11.3 4.2-10.8 11.4 0.2 1.8-0.9 3.7-2.6 4.6-1 0.8-0.2 2.4 1 1.8 2.3-1.2 4.1-3.8 3.7-6.5-0.5-4.5 2.9-9.2 8.5-9.3 3.8-0.1 6.7 1.9 7.9 4.4 0.9 1.5 2.7 0.4 1.8-1.1-0.9-1.7-3.8-5.2-9.5-5.3z"/>
  <path class="cls-4" d="m56.5 62.3c-3.1 0.1-6.5 2.6-6.4 6.8 0.4 3.8-0.4 6.5-4.4 8.2-1 0.8-0.2 2.2 1.1 1.6 2.1-0.9 5.8-3.3 5.5-8.5-0.6-5.3 2.9-6.4 4.2-6.2 4.2 0 5.9 4.8 2.9 7.2-1.1 1.1 0.2 2.9 1.3 1.6 4.1-3.4 2.6-10.2-4.2-10.7z"/>
  <path class="cls-4" d="m64.9 67.3c0.4 3.5-1 6.7-4.5 8.7-3 1.2-4.4 3.5-4.3 6.4 0.3 1.6 2 1.2 2 0-0.2-1.8 0.9-3.6 2.6-4.2 4.5-1.8 6.9-5.9 6.2-11.3-0.3-1.4-2-0.8-2 0.4z"/>
  <path class="cls-4" d="m57 73c-4.1 2.1-5.3 5.1-5.1 9.3 0.1 1.3 2.2 1.2 2.1 0-0.3-4.4 1.8-6.7 3.7-7.3 1.2-0.7 0.5-2.6-0.7-2z"/>
  <path class="cls-4" d="m43.2 71.4c-0.3-1.3-0.1-3.6-0.1-4.1-0.1-1.4-2-1.2-1.9-0.1-0.1 1.8 0 3.6 0.3 4.9 0.6 1.4 2.2 0.6 1.7-0.7z"/>
  <path class="cls-4" d="m56.6 70.5c1 0 2-0.8 2-1.9s-1-1.9-2-1.9-2 0.8-2 1.9 0.9 1.9 2 1.9z"/>
  <path class="cls-5" d="m94.7 77.9v-10.5c0-2.7-1.7-4.1-4-4.1-2 0-3.4 1-4.1 2-0.6-1.1-1.7-2-3.4-2-2 0-3.3 1-3.8 1.7v-1.4h-3.2v14.3h3.3v-9.8c0.3-0.8 1.2-1.8 2.6-1.8s1.6 0.8 1.6 2v9.6h3.3v-9.6c0.2-1 1.2-1.9 2.5-1.9 1.4 0 1.7 0.7 1.7 1.9v9.6h3.5zm7.5 0.3c3.5 0 5.5-1.8 5.5-4.5 0-5.3-7.2-4.2-7.2-6.4 0-0.8 0.8-1.3 1.9-1.3 1.6 0 2.7 0.9 3.7 1.4l1.4-2.2c-1.2-1-2.8-1.9-5.1-1.9-3.2 0-5.1 1.9-5.1 4.2 0 5.4 7.1 3.9 7.1 6.5 0 0.9-0.9 1.6-2.1 1.6-1.6 0-3-0.7-4-1.8l-1.6 2.4c1.1 1.1 3.1 2 5.5 2zm19.9-0.3v-10.1c0-2.6-1.3-4.5-4.2-4.5-1.7 0-3 0.9-4.2 1.8v-7.2h-3.5v20h3.5v-9.8c0.5-0.9 1.6-1.8 2.9-1.8s1.9 0.6 1.9 2.1v9.5h3.6z"/>
</svg>
