<svg xmlns="http://www.w3.org/2000/svg" viewBox="44 -1 82 40"><style type="text/css">.cls-0{fill:#0870B7;}.cls-1{fill:none;stroke:#C5C5CC;stroke-width:0.25;stroke-miterlimit:9.9999;}.cls-2{enable-background:new;}.cls-3{fill:#9ABC5A;}</style>  <path class="cls-0" d="m93.3 0-4.7 16.1-6.3-16.1-6.4 16.1-4.6-16.1h-4.3l8.3 27.8 6.9-17.8 7 17.7 8.3-27.7h-4.2z"/>
  <path class="cls-0" d="m61.3 0v16.4c0 4-1.6 6.8-6 6.9s-6.3-2.3-6.3-6.9v-16.4h-4.2v16.6c0 6.3 3 11 10.2 11s9.9-3.7 10.2-9.1v-18.5h-3.9z"/>
  <polygon class="cls-0" points="98.9 0 95.9 27.5 100.2 27.5 101.8 11.5 109.5 22.7 117.6 11.3 119.1 27.5 123.5 27.5 120.5 0 109.6 15.3"/>
  <path class="cls-0" d="m123.3 0.6c0.3-0.3 0.7-0.6 0.5-0.6 0.6 0 1.6 0.1 1.2 0 0.6 0.3 1 0.8 0.8 0.6 0.5 0.9 0.2 2-0.8 2.2-2.1 0.4-3.7-1.1-1.7-2.2m0.2 1.9c1.5 0.9 2.6-0.8 1-2.1-1.6-0.5-3 1.4-1 2.1"/>
  <path class="cls-0" d="m122.7 1.8"/>
  <path class="cls-0" d="m123 0.7h0.7c0.7 0 0.8 0.8 0.2 0.9l0.5 0.7h-0.3l-0.5-0.7h-0.3v0.7h-0.3v-1.6zm0.3 0.3c0.6 0.1 1.1 0 0 0.8v-0.8z"/>
  <line class="cls-1" x1="44.7" x2="123.8" y1="30.9" y2="30.9"/>
  <g class="cls-2">
    <path class="cls-3" d="m45.2 36.6c0 0.3 0 0.6 0.2 0.9 0.2 0.2 0.6 0.3 0.8 0.3 0.3 0 0.6-0.1 0.8-0.3s0.3-0.6 0.3-0.9v-2.3h0.5v2.4c0 0.4-0.1 0.9-0.4 1.2s-0.7 0.3-1 0.3-0.8 0-1.2-0.3c-0.4-0.4-0.5-0.8-0.4-1.2v-2.4h0.4v2.3z"/>
    <path class="cls-3" d="m48.4 38.1v-3.9l3.1 3.1v-3h0.5v3.9l-3.2-3.1v3h-0.4z"/>
    <path class="cls-3" d="m53.4 34.3v3.8h-0.5v-3.8h0.5z"/>
    <path class="cls-3" d="m55.3 34.7v3.4h-0.4v-3.4h-1v-0.4h2.5v0.4h-1.1z"/>
    <path class="cls-3" d="m58.8 34.7h-1.6v1.2h1.5v0.4h-1.5v1.4h1.6v0.4h-2.1v-3.8h2.1v0.4z"/>
    <path class="cls-3" d="m59.4 34.3h0.9c0.4 0 1.1 0 1.5 0.5s0.7 0.9 0.7 1.5c0 0.7-0.2 1.3-0.7 1.5-0.3 0.3-0.9 0.3-1.4 0.3h-1v-3.8zm0.5 3.4h0.4c0.3 0 0.7 0 1.2-0.3 0.2-0.1 0.6-0.6 0.6-1.1 0-1-0.7-1.6-1.7-1.6h-0.5v3z"/>
    <path class="cls-3" d="m64.8 34.3 1 2.8 1.2-3.1 1.3 3.1 1.1-2.8h0.4l-1.3 3.9-1.3-3.1-1.4 3.1-1.5-3.8 0.5-0.1z"/>
    <path class="cls-3" d="m70.7 35.8h2v-1.5h0.5v3.8h-0.5v-1.9h-2v1.9h-0.4v-3.8h0.4v1.5z"/>
    <path class="cls-3" d="m73.8 36.2c0-1.1 0.9-2 2-2s1.9 0.9 1.9 2-0.8 1.9-2 1.9c-1.1 0.1-1.9-0.7-1.9-1.9zm0.4 0c0 0.9 0.7 1.5 1.5 1.5s1.5-0.6 1.5-1.5-0.7-1.5-1.5-1.5-1.5 0.7-1.5 1.5z"/>
    <path class="cls-3" d="m78.7 34.3v3.4h1.1v0.4h-1.5v-3.8h0.4z"/>
    <path class="cls-3" d="m82.3 34.7h-1.6v1.2h1.5v0.4h-1.5v1.4h1.6v0.4h-2.1v-3.8h2.1v0.4z"/>
    <path class="cls-3" d="m84.6 35.1c-0.1-0.1-0.1-0.3-0.2-0.3-0.1-0.1-0.2-0.1-0.4-0.1-0.3 0-0.7 0.2-0.7 0.6 0 0.3 0.2 0.4 0.7 0.6 0.3 0.1 0.5 0.3 0.8 0.4 0.2 0.2 0.3 0.5 0.3 0.8 0 0.6-0.5 1.1-1.2 1.1-0.2 0-0.6-0.1-0.9-0.4-0.2-0.2-0.3-0.4-0.3-0.6l0.5-0.1c0 0.2 0.1 0.4 0.1 0.5 0.2 0.2 0.4 0.2 0.6 0.2 0.6 0 0.7-0.4 0.7-0.7s-0.2-0.6-0.5-0.7l-0.4-0.2c-0.4-0.2-0.9-0.4-0.9-0.9 0-0.6 0.5-1.1 1.1-1.1 0.5 0 0.7 0.1 1 0.5l-0.3 0.4z"/>
    <path class="cls-3" d="m87.8 37h-1.6l-0.4 1.1h-0.5l1.6-3.9 1.7 3.7h-0.4l-0.4-0.9zm-0.1-0.4-0.7-1.5-0.5 1.5h1.2z"/>
    <path class="cls-3" d="m89.5 34.3v3.4h1.1v0.2h-1.6v-3.7l0.5 0.1z"/>
    <path class="cls-3" d="m93.2 34.7h-1.7v1.2h1.6v0.4h-1.6v1.4h1.7v0.4h-2.2v-3.8h2.2v0.4z"/>
    <path class="cls-3" d="m95.3 37.9 0.7-3.9 1.4 3.2 1.4-3.2 0.8 3.9h-0.4l-0.5-2.5-1.2 2.7-1.3-2.7-0.5 2.5h-0.4z"/>
    <path class="cls-3" d="m100.1 36.2c0-1.1 0.9-2 2-2s2 0.9 2 2-0.9 1.9-2 1.9-2-0.7-2-1.9zm0.5 0c0 0.9 0.7 1.5 1.5 1.5s1.6-0.6 1.6-1.5-0.7-1.6-1.6-1.6c-0.8 0-1.5 0.8-1.5 1.6z"/>
    <path class="cls-3" d="m105.5 34.3c0.2 0 0.7 0 0.9 0.2s0.4 0.5 0.4 0.9c0 0.5-0.4 1-0.9 1l1.1 1.7h-0.5l-1.1-1.6h-0.1v1.6h-0.5v-3.8h0.7zm-0.2 1.7h0.2c0.6 0 0.9-0.2 0.9-0.7s-0.1-0.6-0.8-0.6h-0.3v1.3z"/>
    <path class="cls-3" d="m108.5 34.7v3.4h-0.4v-3.4h-1.1v-0.5h2.5v0.4l-1 0.1z"/>
    <path class="cls-3" d="m111.8 36.2h1.6v0.1c0 0.4-0.1 1-0.4 1.3s-0.8 0.5-1.4 0.5c-1.1 0-2.1-0.8-2.1-1.9s0.9-2 2.1-2c0.3 0 0.9 0.1 1.3 0.5l-0.2 0.4c-0.3-0.3-0.6-0.6-1.2-0.6-0.9 0-1.6 0.8-1.6 1.7 0 1.1 0.9 1.5 1.6 1.5 0.5 0 1-0.2 1.3-0.8 0-0.1 0.1-0.3 0.1-0.4h-1.2v-0.3h0.1z"/>
    <path class="cls-3" d="m116.2 36.9h-1.6l-0.5 1.2h-0.5l1.8-3.9 1.6 3.9h-0.4l-0.4-1.2zm-0.1-0.3-0.6-1.5-0.7 1.5h1.3z"/>
    <path class="cls-3" d="m119.3 36.2h1.6v0.1c0 0.4-0.1 1-0.4 1.3s-0.8 0.5-1.4 0.5c-1 0-2.1-0.8-2.1-1.9s0.9-2 2.1-2c0.3 0 0.9 0.1 1.3 0.5l-0.3 0.4c-0.2-0.3-0.6-0.6-1.1-0.6-0.9 0-1.6 0.8-1.6 1.7 0 1.1 0.8 1.5 1.6 1.5 0.5 0 0.9-0.2 1.3-0.8 0-0.1 0.1-0.3 0.1-0.4h-1.3l0.2-0.3z"/>
    <path class="cls-3" d="m123.7 34.7h-1.6v1.1h1.5v0.4h-1.5v1.5h1.5v0.2h-2v-3.7h2.1v0.5z"/>
  </g>
</svg>
