<svg xmlns="http://www.w3.org/2000/svg" viewBox="0 0 150 147">
<!-- SVG created with Arrow, by QuiverAI (https://quiver.ai) -->
  <style type="text/css">.cls-0 {fill:#26303A;}</style>
  <path class="cls-0" d="m6 106.8c0.2-7.6 3.3-13.8 9.4-17 3.1-1.7 6.5-2.6 10-2.7h16c2.8 0 5.6-0.1 8.3 0.1 7.6 0.9 11.5 10.8 11.7 19.4v15c-0.1 8.2-3.8 16.3-13.4 19-2.2 0.7-4.5 0.9-6.8 1l-13.2-0.1c-2 0-4 0-6.1-0.3-9-1.5-15-7.9-15.8-17.6-0.2-2.9-0.1-14.6-0.1-16.8zm19.6-13.1c-7.2 0.2-12.7 4.2-12.8 13.2v14.8c0 8.3 4.5 13.3 12.6 13.3h15.6c7.9 0 13.5-4.4 13.5-12.7v-15.3c0-7-4-13.1-12.6-13.3h-16.3z"/>
  <path class="cls-0" d="m88.9 24.5c0.2-10.5 6.3-19 17.8-19.2l1.8-0.1h15.6c11.8 0 19.1 7.4 19.7 17.8 0.1 2.3 0.1 14.6 0 17.4-0.4 11-7.1 19.4-19.1 19.5h-16.5c-11.2-0.1-19.3-7.1-19.3-19.9v-15.5zm19.7-12.7c-7.5 0.2-12.8 4.8-12.9 12.7v14.4c0 3.9 0.3 7.3 3.2 10.2 2.1 2 4.7 3.7 9 3.7h16.1c2.9 0 7-0.6 9.8-3.6 2-2.2 3.2-5 3.2-9v-15.5c0-6.7-4.1-12.8-12.3-12.9h-16.1z"/>
  <path class="cls-0" d="m55.2 11.9h-47.8c-0.6 0-0.9-0.4-0.9-0.9v-4.9c0-0.5 0.4-1.1 0.9-1.1l50.7 0.1c2.3-0.2 3.6 1.2 3.5 4v3.6c0 2.2-0.5 3.1-1.8 4.1l-46.9 36h47.7c1 0.1 1.1 0.8 1.1 1.3l-0.1 4.9c0 0.5-0.4 0.9-0.9 0.9h-50.7c-2.7-0.1-3.5-1.5-3.5-3.3s-0.1-4.6 0-5.9c0.1-1.4 0.9-2.2 1.8-2.9l46.9-35.9z"/>
  <path class="cls-0" d="m120.2 115.1 23.5-26.7c0.5-0.6 0.1-1.3-0.6-1.3s-6.1-0.2-6.9 0.1c-0.6 0-0.9 0.6-1 0.6l-19.3 22.2-19.5-22.2c-0.7-0.8-1.5-0.8-2.5-0.8-0.9 0-4.7 0-5.3 0.1-0.7 0-0.9 0.8-0.5 1.2l23.5 26.8-23.4 25.1c-0.5 0.7-0.1 1.3 0.7 1.3h5.5c0.6 0 1.4 0 2.1-0.9l19.4-21.1 18.9 20.8c1.1 1.3 1.8 1.3 3.2 1.3h4.9c0.9 0 1.4-0.8 0.7-1.4l-19.8-22-3.6-3.1z"/>
</svg>